<?xml version="1.0" encoding="utf-8"?>
<!-- Generator: Adobe Illustrator 18.0.0, SVG Export Plug-In . SVG Version: 6.00 Build 0)  -->
<!DOCTYPE svg PUBLIC "-//W3C//DTD SVG 1.1//EN" "http://www.w3.org/Graphics/SVG/1.1/DTD/svg11.dtd">
<svg version="1.1" id="Layer_1" xmlns="http://www.w3.org/2000/svg" xmlns:xlink="http://www.w3.org/1999/xlink" x="0px" y="0px"
	 viewBox="0 0 300 100" enable-background="new 0 0 300 100" xml:space="preserve">
<g>
	<path d="M258.5,24.8c1.3,0,2.5,0.3,3.7,1c1.2,0.6,2.1,1.6,2.8,2.8c0.7,1.2,1,2.5,1,3.8c0,1.3-0.3,2.6-1,3.7
		c-0.7,1.2-1.6,2.1-2.8,2.8c-1.2,0.7-2.4,1-3.7,1c-1.3,0-2.6-0.3-3.7-1c-1.2-0.7-2.1-1.6-2.8-2.8c-0.7-1.2-1-2.4-1-3.7
		c0-1.3,0.3-2.6,1-3.8c0.7-1.2,1.6-2.1,2.8-2.8C255.9,25.1,257.2,24.8,258.5,24.8 M258.5,26.3c-1,0-2,0.3-3,0.8
		c-0.9,0.5-1.7,1.3-2.2,2.2c-0.5,1-0.8,2-0.8,3c0,1.1,0.3,2.1,0.8,3c0.5,1,1.3,1.7,2.2,2.2c1,0.5,2,0.8,3,0.8c1.1,0,2.1-0.3,3-0.8
		c1-0.5,1.7-1.3,2.2-2.2c0.5-1,0.8-2,0.8-3c0-1.1-0.3-2.1-0.8-3c-0.5-1-1.3-1.7-2.2-2.2C260.5,26.5,259.5,26.3,258.5,26.3
		 M255.1,36.4v-8h1.6c1.5,0,2.4,0,2.6,0c0.5,0,1,0.2,1.3,0.3c0.3,0.2,0.5,0.4,0.7,0.8c0.2,0.3,0.3,0.7,0.3,1.1
		c0,0.6-0.2,1.1-0.6,1.5c-0.4,0.4-0.9,0.7-1.6,0.8c0.2,0.1,0.4,0.2,0.6,0.3c0.1,0.1,0.3,0.3,0.5,0.6c0.1,0.1,0.3,0.4,0.6,1l0.9,1.6
		h-2l-0.7-1.3c-0.5-0.9-0.8-1.4-1.1-1.6c-0.3-0.2-0.7-0.3-1.1-0.3h-0.4v3.3H255.1z M256.7,31.8h0.7c0.9,0,1.5,0,1.7-0.1
		c0.2-0.1,0.4-0.2,0.5-0.4c0.1-0.2,0.2-0.4,0.2-0.6c0-0.2-0.1-0.4-0.2-0.6c-0.1-0.2-0.3-0.3-0.5-0.4c-0.2-0.1-0.8-0.1-1.7-0.1h-0.7
		V31.8z"/>
	<path d="M93.4,24.8h5.1v21.1h25.7V24.8h5.1v50.4h-5.1V50.8H98.4v24.4h-5.1V24.8z M83.3,34.1l-4,3.1c-2.2-2.9-4.8-5.1-7.9-6.5
		c-3.1-1.5-6.5-2.2-10.1-2.2c-4,0-7.7,1-11.2,2.9c-3.4,2-6.1,4.6-8,7.8c-1.8,3.2-2.8,7-2.8,11c0,6.1,2.1,11.2,6.3,15.4
		c4.2,4.1,9.5,6.2,15.9,6.2c7.1,0,13-2.7,17.7-8.3l4,3c-2.5,3.2-5.6,5.7-9.4,7.4c-3.7,1.8-7.9,2.6-12.6,2.6
		c-8.8,0-15.8-2.9-20.9-8.8C36.2,62.7,34,56.7,34,49.7c0-7.4,2.6-13.6,7.8-18.6c5.1-5.1,11.7-7.6,19.5-7.6c4.7,0,8.9,0.9,12.7,2.7
		C77.8,28.2,80.9,30.8,83.3,34.1"/>
	<path d="M242.5,24.8h-1.3l-23.8,50.4h5.6l7.9-16.6h21.8l7.9,16.6h5.4L242.5,24.8z M233.2,53.7l8.6-18.3l8.6,18.3H233.2z"/>
	<polygon points="155.1,75.2 162.1,24.8 163.1,24.8 183.7,66.2 204,24.8 204.8,24.8 212,75.2 207.2,75.2 202.1,39.1 184.2,75.2 
		182.9,75.2 164.9,38.8 160.1,75.2 	"/>
	<rect x="140.7" y="24.8" width="5.1" height="50.4"/>
</g>
</svg>
